<?xml version="1.0" encoding="UTF-8"?>
<svg width="25px" height="25px" viewBox="0 0 25 25" version="1.1" xmlns="http://www.w3.org/2000/svg" xmlns:xlink="http://www.w3.org/1999/xlink">
    <!-- Generator: Sketch 42 (36781) - http://www.bohemiancoding.com/sketch -->
    <title>Mute</title>
    <desc>Created with Sketch.</desc>
    <defs></defs>
    <g id="Page-1" stroke="none" stroke-width="1" fill="none" fill-rule="evenodd">
        <g id="Mute" fill-rule="nonzero" fill="#FFFFFF">
            <path d="M22.5905823,12.6235031 L24.631393,14.6643137 C25.1224986,15.1554194 25.1224986,15.9540216 24.631393,16.4451273 C24.1402873,16.9362329 23.3416851,16.9362329 22.8505794,16.4451273 L21.048655,14.6434806 L21,14 L18.7684026,16.445405 C18.2775747,16.9365107 17.4786947,16.9365107 16.987589,16.445405 C16.4964834,15.9542994 16.4964834,15.1556972 16.987589,14.6645915 L19.0286775,12.6235031 L16.9881446,10.5821369 C16.4970389,10.0910312 16.4970389,9.29242896 16.9881446,8.80132331 C17.4789725,8.31021766 18.2778525,8.31021766 18.7689581,8.80132331 L21.3403184,11.3726836 L21.0492106,10.6032477 L22.8508572,8.80160108 C23.3419629,8.31049543 24.1405651,8.31049543 24.6316708,8.80160108 C25.1227764,9.29242896 25.1227764,10.091309 24.6316708,10.5824146 L22.5905823,12.6235031 Z M12.4734725,3.34138398 C13.7748469,2.66000266 14.6312263,2.95361051 14.6312263,4.63081409 L14.6312263,20.6231364 C14.6312263,22.3008955 13.7748469,22.5847813 12.4734725,21.9034 L6.73742514,18.3409395 L6.73659182,18.3409395 L3.81745758,16.5281819 L5.87771247,18.3409395 L3.04996611,18.3409395 C1.37248475,18.3409395 0,16.9684548 0,15.2909734 L0,9.95353273 C0,8.27605137 1.37248475,6.90356662 3.04996611,6.90356662 L6.26243042,6.90356662 L5.10883212,7.91688869 L7.83019078,6.22690747 L7.82935745,6.2255186 L12.4734725,3.34138398 Z" id="Combined-Shape"></path>
        </g>
    </g>
</svg>