<?xml version="1.0" encoding="UTF-8"?>
<svg width="25px" height="25px" viewBox="0 0 25 25" version="1.1" xmlns="http://www.w3.org/2000/svg" xmlns:xlink="http://www.w3.org/1999/xlink">
    <!-- Generator: Sketch 42 (36781) - http://www.bohemiancoding.com/sketch -->
    <title>replay</title>
    <desc>Created with Sketch.</desc>
    <defs></defs>
    <g id="Page-1" stroke="none" stroke-width="1" fill="none" fill-rule="evenodd">
        <g id="replay" fill-rule="nonzero" fill="#FFFFFF">
            <path d="M22.5,10.0640942 C22.5,4.51484366 18.014158,5.32907052e-15 12.4997516,5.32907052e-15 C6.98584203,0.000249977502 2.5,4.51484366 2.5,10.0640942 L2.5,11.410723 L5.17610532,11.410723 L5.17610532,10.0640942 C5.17610532,5.99996 8.46150025,2.69325761 12.5,2.69325761 C16.5384998,2.69325761 19.8241431,5.99971003 19.8241431,10.0640942 C19.8241431,14.1284784 16.5384998,17.4349309 12.5,17.4349309 L10.9632389,17.4349309 L13.9451068,14.4342009 L12.0531545,12.5301223 L7.74913065,16.8604826 L5.85568803,18.7640612 L5.85668157,18.7650611 L5.85593641,18.7658111 L7.74788872,20.6698897 L12.052161,25 L13.94461,23.0959214 L10.9960258,20.1281885 L12.5,20.1281885 C18.014158,20.1281885 22.5,15.6133448 22.5,10.0640942 Z" id="Shape"></path>
        </g>
    </g>
</svg>